HIERARCHY
ROOT Hips
{
	OFFSET 40.497528 24.768526 37.146019
	CHANNELS 6 Xposition Yposition Zposition Zrotation Yrotation Xrotation
	JOINT LHipJoint
	{
		OFFSET 42.134415 48.365273 59.542400
		CHANNELS 3 Zrotation Yrotation Xrotation
		JOINT LeftUpLeg
		{
			OFFSET 68.993095 67.240311 67.699028
			CHANNELS 3 Zrotation Yrotation Xrotation
			JOINT LeftLeg
			{
				OFFSET 69.204643 67.239471 73.790009
				CHANNELS 3 Zrotation Yrotation Xrotation
				JOINT LeftFoot
				{
					OFFSET 82.404488 98.839432 102.573296
					CHANNELS 3 Zrotation Yrotation Xrotation
					JOINT LeftToeBase
					{
						OFFSET 102.757355 100.547325 95.934685
						CHANNELS 3 Zrotation Yrotation Xrotation
						End Site
						{
							OFFSET 0.000000 0.000000 0.000000
						}
					}
				}
			}
		}
	}
	JOINT RHipJoint
	{
		OFFSET 95.204086 91.449112 97.576279
		CHANNELS 3 Zrotation Yrotation Xrotation
		JOINT RightUpLeg
		{
			OFFSET 94.306961 100.223030 96.848724
			CHANNELS 3 Zrotation Yrotation Xrotation
			JOINT RightLeg
			{
				OFFSET 100.383072 92.491409 95.860092
				CHANNELS 3 Zrotation Yrotation Xrotation
				JOINT RightFoot
				{
					OFFSET 91.408249 86.802086 81.455605
					CHANNELS 3 Zrotation Yrotation Xrotation
					JOINT RightToeBase
					{
						OFFSET 82.958229 92.148636 83.927322
						CHANNELS 3 Zrotation Yrotation Xrotation
						End Site
						{
							OFFSET 0.000000 0.000000 0.000000
						}
					}
				}
			}
		}
	}
	JOINT LowerBack
	{
		OFFSET 97.825394 105.844376 124.177094
		CHANNELS 3 Zrotation Yrotation Xrotation
		JOINT Spine
		{
			OFFSET 131.553268 136.450043 143.686737
			CHANNELS 3 Zrotation Yrotation Xrotation
			JOINT Spine1
			{
				OFFSET 146.321198 139.097366 151.808990
				CHANNELS 3 Zrotation Yrotation Xrotation
				JOINT Neck
				{
					OFFSET 156.987137 158.604050 143.196564
					CHANNELS 3 Zrotation Yrotation Xrotation
					JOINT Neck1
					{
						OFFSET 152.096512 163.682434 156.737015
						CHANNELS 3 Zrotation Yrotation Xrotation
						JOINT Head
						{
							OFFSET 142.953812 120.350746 123.382919
							CHANNELS 3 Zrotation Yrotation Xrotation
							End Site
							{
								OFFSET 0.000000 0.000000 0.000000
							}
						}
					}
				}
				JOINT LeftShoulder
				{
					OFFSET 113.452377 106.331940 113.043236
					CHANNELS 3 Zrotation Yrotation Xrotation
					JOINT LeftArm
					{
						OFFSET 124.968971 121.344330 100.638069
						CHANNELS 3 Zrotation Yrotation Xrotation
						JOINT LeftForeArm
						{
							OFFSET 122.334091 138.327332 116.647911
							CHANNELS 3 Zrotation Yrotation Xrotation
							JOINT LeftHand
							{
								OFFSET 134.158936 91.064293 86.992180
								CHANNELS 3 Zrotation Yrotation Xrotation
								JOINT LeftFingerBase
								{
									OFFSET 101.015770 104.223732 112.137253
									CHANNELS 3 Zrotation Yrotation Xrotation
									JOINT LeftHandIndex1
									{
										OFFSET 125.607788 98.398659 68.306847
										CHANNELS 3 Zrotation Yrotation Xrotation
										End Site
										{
											OFFSET 0.000000 0.000000 0.000000
										}
									}
								}
								JOINT LThumb
								{
									OFFSET 84.279442 78.458954 91.120262
									CHANNELS 3 Zrotation Yrotation Xrotation
									End Site
									{
										OFFSET 0.000000 0.000000 0.000000
									}
								}
							}
						}
					}
				}
				JOINT RightShoulder
				{
					OFFSET 95.720139 88.203262 73.154182
					CHANNELS 3 Zrotation Yrotation Xrotation
					JOINT RightArm
					{
						OFFSET 63.607300 75.739967 60.026669
						CHANNELS 3 Zrotation Yrotation Xrotation
						JOINT RightForeArm
						{
							OFFSET 36.070934 34.692860 34.720955
							CHANNELS 3 Zrotation Yrotation Xrotation
							JOINT RightHand
							{
								OFFSET 29.581131 27.713142 33.483341
								CHANNELS 3 Zrotation Yrotation Xrotation
								JOINT RightFingerBase
								{
									OFFSET 33.062599 46.282238 40.466526
									CHANNELS 3 Zrotation Yrotation Xrotation
									JOINT RightHandIndex1
									{
										OFFSET 44.106003 48.593185 50.813660
										CHANNELS 3 Zrotation Yrotation Xrotation
										End Site
										{
											OFFSET 0.000000 0.000000 0.000000
										}
									}
								}
								JOINT RThumb
								{
									OFFSET 51.792110 40.984150 46.362453
									CHANNELS 3 Zrotation Yrotation Xrotation
									End Site
									{
										OFFSET 40.981197 34.610561 45.016140
									}
								}
							}
						}
					}
				}
			}
		}
	}
}
MOTION
Frames: 6
Frame Time: 0.008333
0.669046 9.066938 -165.164352 -46.169388 -111.713524 -122.615944 -87.899765 -52.945724 -92.042618 -260.511780 -273.759583 -422.166290 -128.006271 -160.624634 -507.741608 -125.007835 -557.822693 -675.256042 -64.441109 -234.177414 -718.656372 -282.303467 -115.791618 -171.655807 -498.383301 -471.411255 -705.658630 -166.392502 -216.619858 -640.250122 -172.526398 -515.617310 -716.774231 -64.058441 -241.960770 -794.428650 -176.121536 -160.889969 -242.890961 -94.916229 -228.640930 -223.637375 -182.543900 -116.823853 -332.983032 -309.726410 -198.346619 -316.242401 -102.040657 -230.735977 -257.522369 -132.222702 -99.729485 -175.747131 -147.593765 -112.557228 -55.152538 -380.200073 -374.886078 -1057.289307 -519.320923 -483.939240 -407.544983 -24.908077 -51.679337 -815.811768 -382.261475 -761.778931 -749.289978 -7.125000 0.000000 0.000000 -699.635986 -751.764282 -1287.436768 -144.142929 -29.406410 2.590011 -26.578369 -74.751999 -114.892731 -91.186325 -36.170086 -38.324482 -9.175817 -5.890078 -127.829872 -219.983078 27.715500 2.633016 7.125000 0.000000 0.000000 -57.840351 -247.794815 -419.811707
19.974371 17.142323 135.372757 5.072173 -31.979336 -22.948141 24.244741 14.046101 -0.022914 -19.556978 -24.252048 12.920881 -18.939093 -16.481750 49.464348 -1.104469 -14.758686 -63.118011 -1.566084 -3.359120 -6.238623 -51.085693 -3.965529 -6.096831 43.221359 -1.018667 68.573013 22.571560 10.760755 92.920013 7.268921 58.384270 47.288528 17.829264 45.796276 285.058136 72.835991 62.399788 127.021416 66.123856 75.142014 75.012688 79.703041 83.437683 86.953468 44.746845 102.419380 22.560215 27.792377 16.450176 78.656982 43.997025 28.475050 58.900215 79.770065 79.287445 2.399055 -0.071709 368.538208 52.999702 326.492401 42.952785 170.808319 9.500521 35.812073 413.706696 149.894135 -158.058899 -432.661957 -7.125000 0.000000 0.000000 200.334854 125.898865 -85.300125 11.816273 93.418190 38.897545 146.303192 38.890518 92.746811 -7.315367 17.846121 12.990045 -2.398492 1.555432 -28.068605 -5.927624 126.538704 138.261841 7.125000 0.000000 0.000000 83.094971 -280.653778 -298.795319
20.619320 17.605927 132.634048 25.720089 23.468012 31.573376 74.249001 39.753559 38.177277 82.737518 88.722664 214.639481 26.547911 37.251217 275.143433 36.338806 173.469421 148.642090 21.788536 68.736931 259.024414 26.582399 29.261856 19.291473 115.462715 59.478352 172.374023 40.910656 34.063240 186.446198 21.553392 82.489342 21.828928 15.645901 26.288179 171.620697 46.409203 28.249310 61.711906 32.673889 16.691004 20.243004 43.802792 39.574005 -15.476207 -39.071556 44.096363 -6.195989 27.491478 19.023270 103.789307 62.692402 41.398026 75.801598 79.346245 72.468292 -4.223208 -60.333847 218.576736 -188.564667 236.602783 -26.657427 136.694519 4.044013 18.851753 175.938187 57.610416 14.795502 -330.289642 -7.125000 0.000000 0.000000 396.933289 217.106537 19.896063 -15.508711 71.912781 31.565838 110.554451 101.575050 193.306747 69.151413 80.281334 52.951336 2.074671 6.311542 56.901672 409.766541 353.595459 509.370941 7.125000 0.000000 0.000000 341.289551 -106.510956 415.282074
35.671974 22.952814 327.381470 76.162949 113.340782 134.481995 167.495819 86.158539 103.473366 245.676605 254.260437 498.911865 91.402534 122.849594 595.357971 88.272255 403.093353 417.289459 51.699837 155.977478 545.040588 124.104813 81.793861 101.230804 407.022614 319.132538 597.085510 145.354706 157.616562 601.768127 121.879639 471.975189 517.443420 71.934677 227.562958 906.007812 208.582474 169.753784 290.920197 125.585495 195.290787 200.348434 212.260590 157.496933 235.208160 175.702072 219.077789 223.723572 120.354424 202.738998 351.254974 175.997589 120.092117 215.730118 208.205078 202.835434 38.058044 235.526505 768.381226 683.302734 922.392456 376.194397 553.089722 31.060074 89.101952 1111.896484 472.036621 455.675995 -133.664352 -7.125000 0.000000 0.000000 782.360596 439.316315 392.963470 50.507725 137.222260 52.578190 215.024582 216.099930 328.471771 107.706497 104.263008 67.796661 4.834833 10.166781 119.150223 536.968323 372.040710 243.013885 7.125000 0.000000 0.000000 180.461563 -202.422134 134.086472
19.123795 17.781435 116.210648 32.586559 0.349724 12.626157 58.263474 26.406967 19.569841 11.360296 -2.413711 75.915909 -27.470518 -35.604939 73.340546 -14.138836 -25.317598 -121.965721 -0.376974 -56.040684 -113.974434 -124.495911 -30.182526 -73.406502 -159.634796 -192.694504 -228.757904 -63.042286 -106.630081 -243.417221 -93.201340 -132.787888 -354.398193 -21.717182 -126.272064 -296.216949 -77.241119 -72.019341 -94.595009 -27.161671 -120.772537 -136.499161 -64.741081 -61.616550 -246.738205 -237.571152 -104.609962 -193.141907 -40.267277 -127.365494 -88.177307 -49.310932 -35.385361 -27.849382 -26.438742 15.982015 -20.000593 -138.599533 68.041908 -438.434326 178.429123 -82.734207 68.095505 -3.045097 8.309234 -39.001396 -92.503159 -194.571243 -518.800293 -7.125000 0.000000 0.000000 37.231911 -203.094559 -438.137329 -48.005005 67.945412 31.106403 55.587303 67.893036 30.730522 -21.002218 14.535705 -32.475578 -6.951782 -2.051032 -50.864937 43.399261 156.608490 32.714985 7.125000 0.000000 0.000000 32.608616 -242.669739 111.734146
4.037239 13.698982 -56.805431 -22.153790 -118.444710 -123.827263 -69.574593 -47.383457 -83.976517 -268.473846 -284.339752 -355.632874 -135.336990 -168.136383 -348.811035 -102.252800 -390.833466 -542.859497 -39.342003 -195.504288 -490.728149 -247.657806 -81.487091 -151.397293 -408.757507 -414.049286 -576.694214 -145.727966 -206.501221 -579.920776 -182.721390 -388.592957 -715.102722 -56.570168 -245.567322 -655.052246 -157.204697 -132.752274 -193.161987 -67.670769 -201.266891 -211.427979 -119.292328 -108.473015 -349.489838 -339.649017 -195.624008 -332.827026 -98.868134 -249.496078 -253.090439 -150.933487 -117.747223 -213.694717 -225.904922 -162.684784 -75.069084 -509.467102 -658.422729 -1656.560425 -700.375977 -563.411621 -370.512726 -24.012686 -38.105255 -771.420715 -495.927795 -889.106079 -1049.761475 -7.125000 0.000000 0.000000 -865.729980 -1002.486694 -1408.933838 -117.084084 29.580187 25.345243 16.386528 14.936417 -130.843704 -122.685738 -57.015358 -107.813385 -16.205929 -13.467420 -225.695541 -585.599182 -163.827118 -693.798950 7.125000 0.000000 0.000000 -711.830505 -606.442627 -725.129333
